<svg width="100" height="100" viewBox="0 0 100 100" fill="none" xmlns="http://www.w3.org/2000/svg">
    <g>
        <path
                d="M50 100C77.6142 100 100 77.6142 100 50C100 22.3858 77.6142 0 50 0C22.3858 0 0 22.3858 0 50C0 77.6142 22.3858 100 50 100Z"
                fill="url(#paint0_linear_1_3)"/>
        <path
                d="M85 45.6397H72.5137L74.4383 43.0317L60.6423 43L53.903 52.347H67L61.2153 61.085H51.3333L63.3333 71.3333L87.3333 61.085H75.4567L85 45.6397Z"
                fill="white"/>
        <path d="M82.3333 32.333H68.3333L66.4107 34.9997H80.3653L82.3333 32.333Z" fill="white"/>
        <path d="M78.5203 37.5H64.608L62.5 40.4237H76.3627L78.5203 37.5Z" fill="white"/>
        <path
                d="M50.204 44.1917C50.204 46.552 49.564 48.6877 48.2843 50.5987C47.0043 52.5093 45.141 53.9143 42.6943 54.8137L51.3333 70.9997H37.3303L30.4418 56.893H25.8118V70.9997H13.3333V32.333H37.1047C39.89 32.333 42.2617 32.8763 44.219 33.963C46.214 35.012 47.701 36.4543 48.6797 38.2903C49.696 40.0887 50.204 42.056 50.204 44.1917ZM37.4997 44.6973C37.4997 43.6857 37.161 42.8427 36.4833 42.1683C35.806 41.494 34.9777 41.1567 33.999 41.1567H25.8118V48.2943H33.999C34.9777 48.2943 35.806 47.957 36.4833 47.2827C37.161 46.5707 37.4997 45.709 37.4997 44.6973Z"
                fill="white"/>
    </g>
    <defs>
        <linearGradient id="paint0_linear_1_3" x1="50" y1="0" x2="50" y2="100" gradientUnits="userSpaceOnUse">
            <stop stop-color="#F0DB4F"/>
            <stop offset="0.92" stop-color="#FF5D13"/>
        </linearGradient>
        <clipPath id="clip0_1_3">
            <rect width="100" height="100" fill="white"/>
        </clipPath>
        <clipPath id="clip1_1_3">
            <rect width="100" height="100" fill="white"/>
        </clipPath>
    </defs>
</svg>
