<svg width="100" height="100" viewBox="0 0 100 100" fill="none" xmlns="http://www.w3.org/2000/svg">
    <g>
        <mask id="mask0_vitest" style="mask-type:luminance" maskUnits="userSpaceOnUse" x="0" y="0" width="100" height="100">
            <path d="M100 0H0V100H100V0Z" fill="white"/>
        </mask>
        <g mask="url(#mask0_vitest)">
            <g filter="url(#filter0_d_vitest)">
                <path
                        d="M73.2309 34.6995L51.3291 66.3666C51.0969 66.7024 50.7611 66.9539 50.3726 67.083C49.9841 67.212 49.5642 67.2108 49.1765 67.0811C48.7888 66.9508 48.4546 66.6981 48.2244 66.3617C47.9943 66.0248 47.8807 65.6224 47.9012 65.2157L48.7778 47.7322L34.6269 44.7311C34.3244 44.667 34.0427 44.5296 33.8065 44.3311C33.5703 44.1327 33.387 43.8793 33.2728 43.5933C33.1586 43.3073 33.1171 42.9976 33.1519 42.6916C33.1867 42.3856 33.2967 42.0928 33.4722 41.839L55.3743 10.1719C55.6065 9.83592 55.9423 9.58447 56.3308 9.45556C56.7193 9.32665 57.1393 9.32732 57.527 9.45756C57.9147 9.58774 58.249 9.84035 58.4792 10.1771C58.7093 10.5137 58.8227 10.9161 58.8022 11.3231L57.9257 28.8068L72.0764 31.8076C72.3788 31.8717 72.6606 32.0091 72.897 32.2076C73.1333 32.406 73.3164 32.6595 73.4303 32.9455C73.5449 33.2315 73.5861 33.5412 73.5515 33.8471C73.517 34.1531 73.4067 34.4457 73.2309 34.6995Z"
                        fill="#FCC72B"/>
                <path
                        d="M50.2949 92.9354C49.7124 92.936 49.1355 92.822 48.5973 92.599C48.0591 92.376 47.5703 92.0487 47.1589 91.6366L26.4641 70.9432C25.6363 70.1111 25.1722 68.9844 25.1737 67.8105C25.1753 66.6366 25.6423 65.5105 26.4725 64.6808C27.3026 63.8505 28.4281 63.3832 29.6021 63.3814C30.7762 63.3802 31.903 63.8438 32.7354 64.6717L50.2949 82.2293L88.5485 43.9775C89.3824 43.157 90.5067 42.6994 91.6764 42.7041C92.8467 42.7089 93.9673 43.1757 94.794 44.0029C95.6212 44.8302 96.0885 45.9507 96.0934 47.1206C96.0976 48.2905 95.64 49.4149 94.8194 50.2487L53.4301 91.6366C53.0189 92.0493 52.5301 92.376 51.9921 92.599C51.4541 92.822 50.8773 92.936 50.2949 92.9354Z"
                        fill="#729B1B"/>
                <path
                        d="M50.2771 92.9354C50.8596 92.936 51.4366 92.822 51.9747 92.599C52.5129 92.376 53.0017 92.0487 53.4131 91.6366L74.1079 70.9432C74.9358 70.1111 75.4 68.9844 75.3982 67.8105C75.397 66.6366 74.9297 65.5105 74.0994 64.6808C73.2691 63.8505 72.1436 63.3832 70.9697 63.3814C69.7958 63.3802 68.6691 63.8438 67.8364 64.6717L50.2771 82.2293L12.0236 43.9775C11.1896 43.157 10.0653 42.6994 8.89546 42.7041C7.72559 42.7089 6.60498 43.1757 5.77777 44.0029C4.95055 44.8302 4.48371 45.9507 4.47895 47.1206C4.47419 48.2905 4.93188 49.4149 5.75234 50.2487L47.1418 91.6366C47.5532 92.0493 48.0419 92.376 48.5799 92.599C49.118 92.822 49.6947 92.936 50.2771 92.9354Z"
                        fill="#729B1B" fill-opacity="0.5"/>
            </g>
        </g>
    </g>
    <defs>
        <filter id="filter0_d_vitest" x="0.842549" y="6.32907" width="101.311" height="93.2731" filterUnits="userSpaceOnUse"
                color-interpolation-filters="sRGB">
            <feFlood flood-opacity="0" result="BackgroundImageFix"/>
            <feColorMatrix in="SourceAlpha" type="matrix" values="0 0 0 0 0 0 0 0 0 0 0 0 0 0 0 0 0 0 127 0"
                           result="hardAlpha"/>
            <feOffset dx="1.21212" dy="1.81818"/>
            <feGaussianBlur stdDeviation="2.42424"/>
            <feComposite in2="hardAlpha" operator="out"/>
            <feColorMatrix type="matrix" values="0 0 0 0 0.108333 0 0 0 0 0.108333 0 0 0 0 0.108333 0 0 0 0.2 0"/>
            <feBlend mode="normal" in2="BackgroundImageFix" result="effect1_dropShadow_vitest"/>
            <feBlend mode="normal" in="SourceGraphic" in2="effect1_dropShadow_vitest" result="shape"/>
        </filter>
        <clipPath id="clip0_vitest">
            <rect width="100" height="100" fill="white"/>
        </clipPath>
    </defs>
</svg>
