<svg width="107" height="106" viewBox="0 0 107 106" fill="none" xmlns="http://www.w3.org/2000/svg">
    <g clip-path="url(#clip0_2017_254)">
        <g>
            <path
                    d="M105.064 15.6489L56.6915 102.147C55.6928 103.933 53.1269 103.943 52.1132 102.166L2.78185 15.6573C1.67747 13.7206 3.33354 11.3747 5.52816 11.767L53.9522 20.4225C54.2611 20.4777 54.5773 20.4772 54.8862 20.4209L102.298 11.7794C104.485 11.3808 106.149 13.7084 105.064 15.6489Z"
                    fill="url(#paint0_linear_2017_254)"/>
            <path
                    d="M77.0191 0.414055L41.2222 7.42832C40.6339 7.5436 40.1982 8.0422 40.1627 8.64058L37.9607 45.8307C37.9089 46.7067 38.7134 47.3865 39.5683 47.1894L49.5347 44.8893C50.4672 44.6742 51.3098 45.4955 51.1181 46.4333L48.1571 60.9328C47.9579 61.9086 48.874 62.7431 49.827 62.4536L55.9827 60.5834C56.9371 60.2937 57.854 61.1305 57.6521 62.1071L52.9466 84.8825C52.6521 86.3072 54.5471 87.084 55.3373 85.8626L55.8652 85.0468L85.0345 26.8344C85.523 25.8597 84.6807 24.7483 83.6102 24.9549L73.3515 26.9348C72.3874 27.1207 71.5672 26.2229 71.8393 25.2797L78.535 2.06832C78.8073 1.12354 77.9842 0.224976 77.0191 0.414055Z"
                    fill="url(#paint1_linear_2017_254)"/>
        </g>
    </g>
    <defs>
        <linearGradient id="paint0_linear_2017_254" x1="1.57739" y1="8.6757" x2="61.7804" y2="90.4362"
                        gradientUnits="userSpaceOnUse">
            <stop offset="0" stop-color="#41D1FF"/>
            <stop offset="1" stop-color="#BD34FE"/>
        </linearGradient>
        <linearGradient id="paint1_linear_2017_254" x1="51.1728" y1="2.31841" x2="62.0633" y2="77.0256"
                        gradientUnits="userSpaceOnUse">
            <stop offset="0" stop-color="#FFEA83"/>
            <stop offset="0.0833333" stop-color="#FFDD35"/>
            <stop offset="1" stop-color="#FFA800"/>
        </linearGradient>
        <clipPath id="clip0_2017_254">
            <rect width="107" height="106" fill="white"/>
        </clipPath>
    </defs>
</svg>
